{"title":"Udta Punjab (2016) 1080p Bluray AAC 5.1 H.265 10bits [Xtwo65]","uid":15757171,"size":3044006234,"categoryP":"video","categoryS":"hd___movies","magnet":"?xt=urn:btih:d02ce81d3eee183698cdfbd984b669115b0b7e9c&amp;dn=Udta+Punjab+%282016%29+1080p+Bluray+AAC+5.1+H.265+10bits+%5BXtwo65%5D&amp;tr=udp%3A%2F%2Ftracker.leechers-paradise.org%3A6969&amp;tr=udp%3A%2F%2Fzer0day.ch%3A1337&amp;tr=udp%3A%2F%2Fopen.demonii.com%3A1337&amp;tr=udp%3A%2F%2Ftracker.coppersurfer.tk%3A6969&amp;tr=udp%3A%2F%2Fexodus.desync.com%3A6969","seeders":0,"leechers":1,"uploader":"xtwo65","files":2,"time":1473069692,"description":"Xtwo65 10bits release... :) Quality rips (exp like bluray :) ) \r\n\r\n\r\nGeneral \r\nFormat : Matroska \r\nFormat version : Version 4 / Version 2 \r\nFile size : 2.83 GiB \r\nDuration : 2 h 28 min \r\nOverall bit rate : 2 731 kb/s \r\nEncoded date : UTC 2016-09-05 19:42:38 / UTC 2016-09-05T03:31:32Z \r\nWriting application : mkvmerge v9.4.0 ('Knurl') 64bit \r\nWriting library : libebml v1.3.4 + libmatroska v1.4.5 / Lavf56.1.0 \r\n\r\nVideo \r\nID : 1 \r\nFormat : HEVC \r\nFormat/Info : High Efficiency Video Coding \r\nFormat profile : Main   @Main \r\nCodec ID : V_MPEGH/ISO/HEVC \r\nDuration : 2 h 28 min \r\nBit rate : 2 036 kb/s \r\nWidth : 1 920 pixels \r\nHeight : 804 pixels \r\nDisplay aspect ratio : 2.40:1 \r\nFrame rate mode : Constant \r\nFrame rate : 24.000 FPS \r\nColor space : YUV \r\nChroma subsampling : 4:2:0 \r\nBit depth : 10 bits \r\nBits/(Pixel*Frame) : 0.055 \r\nStream size : 2.11 GiB (75%) \r\n\r\n\r\nAudio \r\nID : 2 \r\nFormat : AC-3 \r\nFormat/Info : Audio Coding 3 \r\nMode extension : CM (complete main) \r\nFormat settings, Endianness : Big \r\nCodec ID : A_AC3 \r\nDuration : 2 h 28 min \r\nBit rate mode : Constant \r\nBit rate : 640 kb/s \r\nChannel(s) : 6 channels \r\nChannel positions : Front: L C R, Side: L R, LFE \r\nSampling rate : 48.0 kHz \r\nFrame rate : 31.250 FPS (1536 spf) \r\nCompression mode : Lossy \r\nStream size : 680 MiB (23%) \r\nTitle : Surround","torrent":{"xt":"urn:btih:d02ce81d3eee183698cdfbd984b669115b0b7e9c","amp;dn":"Udta+Punjab+%282016%29+1080p+Bluray+AAC+5.1+H.265+10bits+%5BXtwo65%5D","amp;tr":["udp%3A%2F%2Ftracker.leechers-paradise.org%3A6969","udp%3A%2F%2Fzer0day.ch%3A1337","udp%3A%2F%2Fopen.demonii.com%3A1337","udp%3A%2F%2Ftracker.coppersurfer.tk%3A6969","udp%3A%2F%2Fexodus.desync.com%3A6969"],"infoHash":"d02ce81d3eee183698cdfbd984b669115b0b7e9c","infoHashBuffer":{"type":"Buffer","data":[208,44,232,29,62,238,24,54,152,205,251,217,132,182,105,17,91,11,126,156]},"announce":[],"urlList":[]}}